<svg
	width="385"
	height="12"
	viewBox="0 0 385 12"
	fill="none"
	xmlns="http://www.w3.org/2000/svg"
>
	<mask
		id="mask0_2_978"
		style="mask-type: alpha"
		maskUnits="userSpaceOnUse"
		x="0"
		y="0"
		width="385"
		height="12"
	>
		<rect width="385" height="12" fill="#C4C4C4" />
	</mask>
	<g mask="url(#mask0_2_978)">
		<path
			d="M57.8282 -2.53772L58.7692 -2.69589L56.9381 -2.92267L57.8159 -3.08867C58.696 -3.08715 59.8364 -2.83842 60.4569 -2.97058C60.5328 -3.09855 59.5744 -3.13961 59.3298 -3.24157C59.1134 -3.34607 58.9368 -3.44988 58.802 -3.55178C59.2814 -3.55068 59.8083 -3.52603 60.3517 -3.47929C61.0825 -3.40294 61.7993 -3.36583 62.4231 -3.37204C63.6986 -3.35142 64.9308 -3.37199 66.3175 -3.36746L65.8561 -3.67542L67.6433 -3.60338C67.8327 -3.57992 68.0585 -3.61765 68.2446 -3.58862C69.7934 -3.34305 70.4488 -3.47687 71.1923 -3.58783C71.3448 -3.61654 71.5284 -3.63798 71.7384 -3.65158C73.8045 -3.59275 75.6677 -3.24853 77.5284 -3.07182C77.8786 -3.02671 78.2145 -2.96879 78.5123 -2.90219C79.1595 -2.77271 79.8794 -2.667 80.6061 -2.59472C81.3329 -2.52244 82.0433 -2.48592 82.6724 -2.48847C84.0636 -2.49133 85.6353 -2.40569 87.2355 -2.23983C87.7113 -2.1852 88.1875 -2.14917 88.6336 -2.13402C89.0797 -2.11886 89.4861 -2.12492 89.8265 -2.15183L90.9084 -1.97603C91.3774 -2.04736 91.972 -2.0865 92.6563 -2.09107C93.3405 -2.09563 94.1001 -2.06553 94.8889 -2.00259C95.7295 -1.93431 96.5834 -1.88828 97.4555 -1.81609C99.2571 -1.67808 101.011 -1.59368 102.661 -1.5655C105.119 -1.48201 107.521 -1.41746 110.001 -1.31336C111.552 -1.26312 113.064 -1.23548 114.527 -1.2306C116.279 -1.21095 118.174 -1.11581 120.121 -0.949774C120.029 -0.793995 119.175 -0.840017 118.602 -0.845289C116.754 -0.871181 114.862 -0.938275 112.96 -0.988677C112.103 -1.00835 111.27 -1.0158 110.466 -1.01098C109.12 -1.01744 107.702 -1.05894 106.235 -1.13479C103.918 -1.21825 101.675 -1.25837 99.5288 -1.25474C99.3606 -1.24857 99.2064 -1.23764 99.0689 -1.22212C99.0403 -1.20868 99.0346 -1.19173 99.0525 -1.17291C99.0704 -1.15408 99.1113 -1.134 99.1712 -1.11459C99.2311 -1.09519 99.308 -1.0771 99.3947 -1.06207C99.4813 -1.04703 99.5748 -1.03555 99.666 -1.02873C100.518 -0.923156 101.434 -0.809769 102.238 -0.793819C102.269 -0.792625 102.302 -0.789904 102.335 -0.785846C102.367 -0.781789 102.399 -0.776497 102.427 -0.770359C104.227 -0.547486 105.706 -0.585201 107.108 -0.54894C109.435 -0.45094 111.679 -0.405164 113.805 -0.412303C114.126 -0.411818 114.473 -0.399078 114.833 -0.374545C117.059 -0.275095 119.141 -0.263972 120.981 -0.341679C121.738 -0.361367 122.442 -0.405561 123.255 -0.4063C123.757 -0.409341 124.193 -0.437544 124.538 -0.489219C124.883 -0.540895 125.13 -0.614974 125.264 -0.707002C125.607 -0.65855 125.956 -0.615369 126.305 -0.577976C126.514 -0.556595 126.715 -0.550915 126.866 -0.562104C127.017 -0.573292 127.108 -0.600512 127.121 -0.638257C127.183 -0.743965 126.706 -0.79705 126.293 -0.842317C126.542 -0.864987 126.823 -0.878324 127.129 -0.882006C128.853 -0.90616 130.703 -0.877652 132.637 -0.797108C134.138 -0.700698 135.337 -0.779169 136.917 -0.643212C137.106 -0.619752 137.262 -0.654186 137.437 -0.662454C137.891 -0.705992 138.458 -0.715778 139.087 -0.690956C139.716 -0.666132 140.388 -0.607451 141.046 -0.520001C141.865 -0.758922 143.635 -0.485975 144.942 -0.461444C145.345 -0.33994 144.883 -0.361301 144.863 -0.32792C144.843 -0.294538 144.863 -0.327927 144.705 -0.347478C143.4 -0.175408 141.612 -0.137888 139.592 -0.240191C139.219 -0.239765 138.863 -0.231926 138.528 -0.216749C138.021 -0.195266 137.449 -0.197411 136.837 -0.22309C136.169 -0.241949 135.556 -0.232992 135.026 -0.196652C134.721 -0.197244 134.463 -0.179038 134.276 -0.143713C134.09 -0.108387 133.98 -0.0570843 133.957 0.00542437C134.161 0.0536146 134.386 0.0977087 134.625 0.135957C135.873 0.286974 137.118 0.349484 138.114 0.311188C139.847 0.245203 141.91 0.309593 143.753 0.287068C144.999 0.277942 146.325 0.303935 147.706 0.364564C147.706 0.364564 147.67 0.425763 147.666 0.431326C147.83 0.457824 148.001 0.479083 148.172 0.493888C148.172 0.493888 148.172 0.493889 148.188 0.466071C148.112 0.439356 148.01 0.414226 147.892 0.393588L147.482 0.342756C147.761 0.329528 148.021 0.290143 148.312 0.314206C148.924 0.358912 149.51 0.377786 150.033 0.369706C150.556 0.361626 151.006 0.326752 151.356 0.267183C151.976 0.190835 152.747 0.156116 153.619 0.165266C154.287 0.15693 154.931 0.139017 155.548 0.111612C155.548 0.111612 155.588 0.0448553 155.88 0.00937295C155.603 -0.034389 155.315 -0.070125 155.028 -0.0961941C153.779 -0.161323 152.526 -0.220889 151.299 -0.265416C150.847 -0.270227 150.421 -0.262766 150.032 -0.24318C148.952 -0.220261 147.738 -0.25279 146.462 -0.338871C146.462 -0.338871 146.21 -0.370149 146.084 -0.385789C146.442 -0.532543 147.676 -0.385625 148.176 -0.48501C148.479 -0.483202 149.014 -0.470704 148.996 -0.496869C148.954 -0.531782 148.949 -0.564219 148.981 -0.591847C149.013 -0.619476 149.082 -0.641617 149.181 -0.656677C149.281 -0.671739 149.409 -0.679352 149.558 -0.678966C149.706 -0.678578 149.87 -0.670198 150.038 -0.654438C151.443 -0.569174 152.767 -0.545462 153.928 -0.584757C154.368 -0.583999 154.861 -0.558728 155.298 -0.552406C155.565 -0.54479 155.809 -0.549025 156.017 -0.564877C157.072 -0.681619 158.492 -0.690145 160.064 -0.589174C160.824 -0.552871 161.533 -0.548018 162.157 -0.574859C162.6 -0.579662 162.788 -0.496663 163.104 -0.457562L164.444 -0.375138L162.723 -0.271858C163.091 -0.0351733 163.383 0.0428688 163.984 0.0576145C164.862 0.0798814 165.716 0.0899411 166.542 0.0877312C167.153 0.0857855 167.658 0.0348151 168.485 0.125348C168.631 0.140115 168.772 0.144893 168.884 0.138886C169.853 0.0585099 171.02 0.0400638 172.305 0.0848069C172.97 -0.0657016 174.103 0.0806318 175.152 0.198536C175.49 0.0851636 174.877 0.0331218 174.511 -0.0360536C175.388 -0.0289721 176.271 -0.0330161 177.177 -0.016462C177.449 -0.0224874 177.76 -0.0121788 178.086 0.0136548C178.412 0.0394873 178.743 0.0801366 179.054 0.132426C179.205 0.166213 179.388 0.191641 179.564 0.203432C179.74 0.215221 179.896 0.212471 179.999 0.19575C180.469 0.146436 181.221 0.191857 181.61 0.108557C181.748 0.0894004 181.945 0.086726 182.166 0.101003C182.387 0.115278 182.618 0.14558 182.817 0.186477C182.599 0.199237 182.405 0.21933 182.24 0.246314C181.645 0.333969 181.864 0.480432 182.619 0.693363C183.778 0.681653 184.962 0.684978 186.036 0.644847C186.635 0.608823 187.369 0.620084 188.155 0.677369C188.941 0.734651 189.748 0.835686 190.486 0.969108C190.753 1.02041 191.058 1.05595 191.339 1.06866C191.62 1.08136 191.858 1.07031 192.005 1.03769C192.096 0.999971 192.124 0.952228 192.087 0.898605L191.329 0.80477C191.329 0.80477 191.359 0.754697 191.366 0.74357L192.455 0.735157C193.031 0.734864 193.632 0.749615 194.177 0.745412C194.977 0.717468 195.891 0.733043 196.861 0.791172C197.756 0.850779 198.636 0.895833 199.492 0.925939C200.321 0.956926 200.922 0.858139 201.71 0.842362C202.307 0.83047 202.963 0.843179 203.654 0.87999C204.847 0.945279 205.942 0.945401 206.839 0.880342C207.885 1.23086 208.393 1.28786 209.364 1.19314L209.821 1.16608L209.946 1.24126L210.295 1.22473C210.947 1.21001 211.6 1.19529 212.281 1.19004C213.227 1.22257 214.25 1.31008 215.248 1.44405C215.437 1.4675 215.695 1.54721 215.861 1.60962C216.028 1.67202 216.39 1.86028 216.657 1.98284C216.366 2.0723 216.045 2.15785 215.814 2.2607C215.791 2.27827 215.793 2.29922 215.821 2.32187C215.848 2.34452 215.9 2.36824 215.972 2.39111C216.045 2.41399 216.135 2.43538 216.236 2.45358C216.338 2.47177 216.447 2.48627 216.556 2.49589C216.768 2.51663 216.978 2.53046 217.176 2.5368C218.151 2.54774 219.085 2.53961 219.969 2.51249C220.291 2.47422 220.733 2.47059 221.224 2.50216C221.715 2.53374 222.226 2.59872 222.678 2.6868C223.834 2.63392 225.178 2.64954 226.616 2.73258C228.137 2.68208 229.974 2.7842 231.395 2.67356C231.362 2.72919 231.509 2.82498 231.713 2.88017C232.037 2.96399 232.403 3.04168 232.797 3.10994L235.802 3.24321C235.914 3.31174 236.054 3.38111 236.221 3.45043C236.335 3.50518 236.534 3.55875 236.775 3.59979C237.017 3.64084 237.282 3.66613 237.514 3.67029C238.112 3.6906 238.613 3.64519 239.326 3.75738C238.228 3.86342 236.747 3.84934 235.148 3.71762C233.645 3.61745 232.199 3.56738 230.864 3.56929C230.424 3.56853 229.844 3.57438 229.707 3.63497C229.402 3.80624 228.605 3.77916 227.675 3.74757C226.944 3.71299 226.277 3.71687 225.727 3.7589C225.178 3.80092 224.763 3.87989 224.515 3.98931C224.453 4.09502 224.603 4.18524 225.244 4.24675L227.91 4.4934C228.304 4.46169 228.676 4.42416 229.028 4.38095C229.619 4.32356 230.35 4.30781 231.163 4.33492C231.975 4.36202 232.848 4.43127 233.713 4.53725C234.155 4.59199 234.597 4.64673 234.918 4.62072C235.199 4.59085 235.458 4.55507 235.693 4.51367C235.74 4.48593 235.759 4.45399 235.749 4.41909C235.919 4.43532 236.089 4.45641 236.254 4.48165C237.57 4.77609 238.59 4.771 239.516 4.69462C239.767 4.67192 239.958 4.63584 240.212 4.60757C240.466 4.57931 240.555 4.54262 240.786 4.5533C242.627 4.64987 243.157 4.32733 244.708 4.34029C244.783 4.32769 244.83 4.30885 244.844 4.28552C244.858 4.26218 244.838 4.2351 244.787 4.20676C244.677 4.18118 244.551 4.15917 244.418 4.14277C244.286 4.12637 244.152 4.11611 244.029 4.11292C243.315 4.07154 242.685 4.08422 242.246 4.14883C241.935 4.17523 241.605 4.19626 241.26 4.21182L239.706 3.74475C241.211 3.78756 242.634 3.78728 243.943 3.74391C244.228 3.71955 244.712 3.76152 245.114 3.76949L248.07 3.81315C248.678 3.81677 249.196 3.74355 250.043 3.91423C250.043 3.91423 250.603 3.94175 250.752 3.91845C250.902 3.89514 251.564 3.7502 251.959 3.65577C252.417 3.68269 253.052 3.75534 253.337 3.73098C253.836 3.67116 254.268 3.59447 254.625 3.50229L256.411 3.63389C256.409 3.75078 256.344 3.86076 256.216 3.96214C256.077 4.0599 256.082 4.17726 256.23 4.30462C256.379 4.43197 256.666 4.5657 257.07 4.69489L258.833 5.3791C259.121 5.42492 259.428 5.45576 259.712 5.46744C259.996 5.47912 260.243 5.47106 260.421 5.44438C261.18 5.36514 262.03 5.30321 262.788 5.22397C263.767 5.34518 263.515 5.54096 264.227 5.71269L266.531 5.99812C266.883 6.26262 267.241 6.516 266.172 6.60455C265.959 6.62003 266.103 6.72139 265.909 6.76304C266.74 6.96153 267.654 7.02095 268.496 7.14321C268.828 7.23114 269.106 7.32421 269.316 7.41794C269.546 7.55906 270.014 7.70322 270.617 7.81928C271.22 7.93534 271.911 8.014 272.54 8.03825C273.596 8.11256 274.676 8.22416 275.734 8.36806C276.095 8.4181 276.466 8.45456 276.822 8.47497C277.178 8.49539 277.511 8.4993 277.798 8.48643C278.821 8.46378 279.687 8.38586 280.34 8.25776C280.985 8.14905 281.855 8.09666 282.87 8.10533C284.606 8.32038 284.957 8.64443 286.007 8.92985L284.192 8.96185C284.127 9.07312 284.247 9.21341 283.503 9.21084C282.759 9.20828 283.136 9.31474 283.377 9.42226C283.462 9.47634 283.628 9.53198 283.847 9.57974C284.066 9.62751 284.324 9.66446 284.578 9.68436L286.123 9.82198C286.671 9.87435 287.201 9.89671 287.655 9.88662C288.109 9.87652 288.47 9.83435 288.698 9.76473C288.96 9.69863 289.321 9.65391 289.759 9.63333C290.317 9.5794 290.776 9.4992 291.119 9.39576L293.301 9.54647C293.393 9.44252 293.693 9.36964 294.149 9.34014C294.605 9.31064 295.189 9.32632 295.803 9.38456L297.273 9.47706C298.907 9.57799 299.266 9.54476 299.744 9.2517L297.784 8.72824C298.069 8.59035 298.344 8.46916 298.62 8.34797C298.131 8.17551 297.48 8.01239 296.731 7.87518C296.032 7.72775 295.314 7.58496 294.579 7.44736C293.781 7.30675 292.938 7.18449 291.948 7.02599C291.775 6.97471 291.524 6.88388 291.203 6.79636C290.882 6.71131 290.547 6.62795 290.199 6.54659C290.265 6.43531 290.324 6.33517 290.197 6.206C290.807 6.24722 291.437 6.3193 292.031 6.41576C292.625 6.51221 293.163 6.63 293.597 6.75851C293.67 6.7813 293.76 6.8027 293.86 6.82128C293.96 6.83986 294.068 6.85517 294.177 6.86618C295.249 6.94514 295.761 7.1101 296.285 7.31235C296.638 7.41574 297.093 7.50755 297.587 7.57506C298.534 7.69236 299.461 7.84305 300.367 7.97313C300.644 8.01647 300.932 8.05216 301.219 8.0787C302.166 8.16309 303.118 8.28109 304.029 8.4267C304.326 8.4637 304.611 8.51268 304.86 8.56953C305.11 8.62637 305.316 8.68944 305.462 8.75346C305.236 8.8236 305.115 8.91215 305.104 9.01374C305.065 9.08051 305.729 9.2166 306.044 9.31525C306.358 9.4139 305.742 9.36742 305.533 9.37734C304.674 9.39642 304.515 9.43642 305.029 9.65536C305.201 9.72421 305.315 9.79309 305.364 9.85773C305.413 9.92237 305.396 9.9814 305.315 10.0311C305.193 10.237 304.821 10.406 304.566 10.6073C304.962 10.74 305.624 10.8816 305.696 11.0458C305.731 11.0822 305.804 11.1208 305.91 11.1588C306.017 11.1968 306.154 11.2332 306.311 11.2654C306.727 11.3349 307.105 11.418 307.416 11.5082C307.726 11.5985 307.962 11.6936 308.104 11.786C308.15 11.8242 308.262 11.8647 308.418 11.8995C308.573 11.9343 308.76 11.9606 308.942 11.9733C309.158 11.989 309.352 11.9869 309.484 11.9676C309.615 11.9483 309.673 11.9132 309.647 11.8696C309.652 11.7877 309.624 11.7023 309.561 11.6141C309.597 11.5529 309.634 11.4917 309.49 11.3904C310.137 11.4274 310.817 11.5015 311.455 11.6047C312.093 11.7079 312.664 11.8363 313.108 11.9758C313.599 12.1202 314.051 12.2718 314.595 12.4406C314.483 12.6298 314.483 12.6298 315.64 12.9642L321.779 13.1273L323.037 13.3488C324.21 13.5419 324.489 13.5287 325.226 13.4289L325.722 13.335C326.764 13.4641 327.964 13.6126 328.615 13.3709C328.827 13.5285 328.965 13.5814 328.917 13.6053C328.606 13.8379 328.065 14.0352 327.317 14.1895C327.126 14.2255 326.992 14.2806 326.769 14.3127C326.052 14.4943 325.886 14.775 326.304 15.0972C326.512 15.2398 326.814 15.3858 327.2 15.5306C326.635 15.7314 325.886 15.8979 324.975 16.0254C324.201 16.1241 323.564 16.2562 323.082 16.418C322.649 16.5811 322 16.7037 321.173 16.7788C320.754 16.8108 320.448 16.8737 320.286 16.9615C320.238 17.1991 320.349 17.4536 320.616 17.7191C320.667 17.7999 320.81 17.8872 321.035 17.9741C321.26 18.061 321.56 18.1451 321.912 18.22C321.912 18.22 322.082 18.2768 322.163 18.3108C322.231 18.5985 321.977 18.8521 321.418 19.0545C321.326 19.1119 321.138 19.1534 320.875 19.1745C320.612 19.1955 320.283 19.1954 319.923 19.174C319.164 19.1397 318.455 19.1355 317.721 19.1163C316.93 19.089 316.233 19.1105 315.704 19.1784C315.175 19.2463 314.833 19.3582 314.714 19.5022C314.706 19.543 314.683 19.582 314.644 19.619C314.622 19.6381 314.61 19.6586 314.608 19.6802L316.294 20.1518L314.387 20.3396C314.275 20.5287 315.19 20.6421 315.649 20.7826L315.365 20.8609C315 20.9053 314.508 20.8205 314.063 20.7713L313.621 20.7165L313.568 20.8056C313.293 20.9268 312.29 20.7905 311.898 20.8794C311.507 20.9682 311.786 21.0685 312.373 21.1651C312.78 21.2368 313.218 21.2941 313.653 21.3324C314.088 21.3708 314.509 21.3893 314.885 21.3866C315.108 21.3771 315.294 21.3554 315.431 21.3229C316.222 21.1842 317.097 21.0651 318.048 20.9662C318.777 20.8775 319.69 20.8397 320.723 20.8556C321.026 20.8489 321.391 20.8699 321.755 20.915C322.119 20.96 322.458 21.0262 322.712 21.1019L323.247 21.1144C323.247 21.1144 323.539 21.1925 323.498 21.2052C323.294 21.4365 323.531 21.7191 324.172 22.0114L323.614 22.0378C322.817 22.0108 323.323 22.1868 323.203 22.2736C322.637 22.2572 321.901 22.184 321.633 22.294L321.231 22.2861L321.388 22.3056L321.579 22.2695L322.329 22.434C321.974 22.4617 321.716 22.4955 321.403 22.5104C321.229 22.5234 321.091 22.5462 320.997 22.5776C320.903 22.6091 320.854 22.6484 320.854 22.6932C320.855 22.7623 320.761 22.8204 320.582 22.862C320.403 22.9036 320.145 22.9273 319.832 22.931C319.458 22.9325 319.244 23.0075 319.025 23.0341L319.977 23.4864C319.977 23.4864 319.503 23.4278 319.761 23.5075L319.794 23.4518L320.371 23.5651C320.787 23.6643 321.077 23.6884 321.323 23.6173C321.568 23.5461 321.512 23.6407 321.63 23.6135C321.587 23.6858 321.32 23.7364 321.091 23.7797C320.826 23.8137 320.527 23.8387 320.199 23.8544C320.79 24.1724 320.819 24.1819 319.955 24.2661C319.092 24.3503 319.39 24.4767 318.668 24.4948C317.945 24.5128 318.767 24.728 319.25 24.77C319.609 24.7975 319.974 24.8405 320.321 24.8959C320.669 24.9513 320.99 25.0178 321.263 25.0909L321.118 25.3357C320.905 25.3154 320.692 25.289 320.486 25.2575C319.786 25.123 319.15 24.9964 318.527 25.0746L318.824 25.2606L316.651 25.1527C316.707 25.2921 317.039 25.4509 317.575 25.5956C317.494 25.6751 317.444 25.7587 317.426 25.846C317.39 25.9072 317.176 25.8687 317.036 25.8753C316.539 25.8855 316.13 25.927 315.847 25.996C315.564 26.0651 315.415 26.1596 315.412 26.2713C315.356 26.3659 316.121 26.5621 316.599 26.5557C317.793 26.5745 319.085 26.6473 320.403 26.77C321.207 26.786 321.32 26.5373 322.643 26.707C322.669 26.8219 322.5 26.9149 322.16 26.9719C321.821 27.029 321.33 27.0471 320.761 27.0234C321.085 27.2784 322.875 27.3449 322.954 27.6115C322.508 27.5927 322.032 27.5484 321.571 27.483C321.111 27.4176 320.682 27.3333 320.329 27.2386C320.252 27.2152 320.157 27.1937 320.05 27.176C319.944 27.1583 319.83 27.1449 319.72 27.1372C319.609 27.1295 319.506 27.1277 319.419 27.1319C319.332 27.1361 319.264 27.1462 319.222 27.1612C319.47 27.2576 319.743 27.3691 320.054 27.4733C320.365 27.5775 320.44 27.6226 320.664 27.6444C322.337 27.8516 323.133 28.2249 324.58 28.4698C324.959 28.5168 325.006 28.6659 324.678 28.6491C324.365 28.6322 324.081 28.6344 323.859 28.6554C323.638 28.6765 323.486 28.7155 323.421 28.7681C323.178 28.8296 322.876 28.8784 322.521 28.9135C324.006 29.2965 325.776 29.635 327.665 29.897C328.023 29.9488 328.397 29.9804 328.73 29.9871C329.785 29.9875 330.904 30.0179 332.066 30.0777C332.477 30.094 332.858 30.0925 333.186 30.0732C334.264 30.0275 335.12 30.1275 335.902 30.4095L337.195 30.8564C337.153 30.9287 336.935 31.0093 336.768 31.12L337.779 31.3586L345.492 30.809L347.04 31.3411L349.261 31.3116C349.431 31.3269 349.602 31.3481 349.766 31.3741C350.215 31.5313 350.566 31.6822 351.053 31.8322C351.54 31.9821 352.411 32.0003 353.018 32.177C353.625 32.3537 354.232 32.3573 354.983 32.4623C355.054 32.599 354.981 32.7221 354.769 32.8239C354.7 32.9407 354.318 33.0129 354.252 33.1242C354.26 33.2366 354.118 33.3321 353.84 33.4019C353.562 33.4718 353.156 33.5138 352.66 33.5241C351.27 33.7636 349.594 33.9341 347.683 34.0305C347.515 34.0375 347.376 34.0537 347.274 34.078C347.172 34.1024 347.11 34.1344 347.091 34.1721C347.094 34.2813 346.966 34.3756 346.718 34.4482C346.47 34.5208 346.107 34.5698 345.656 34.5916C345.536 34.596 345.446 34.6097 345.396 34.631C345.225 34.6448 345.1 34.6711 345.034 34.7074C344.968 34.7437 344.963 34.7888 345.019 34.8384C345.074 34.8879 345.189 34.9402 345.353 34.9902C345.516 35.0402 345.722 35.0862 345.951 35.1238C346.283 35.1843 346.622 35.2422 346.966 35.2973C346.947 35.3307 346.604 35.3361 346.654 35.3662C346.789 35.4622 346.821 35.5521 346.746 35.6289C346.671 35.7056 346.492 35.7671 346.223 35.8084L348.066 36.5861C349.185 36.6939 350.283 36.8766 351.151 37.0995C351.152 37.1361 351.102 37.1667 351.006 37.1883C350.91 37.21 350.771 37.2219 350.603 37.2228C350.153 37.2388 349.728 37.2697 349.243 37.2873C348.947 37.3005 348.7 37.3294 348.518 37.3724C348.335 37.4154 348.22 37.4716 348.18 37.5378L349.262 37.8271C348.916 37.8977 348.658 37.9315 348.429 37.9748C348.559 38.0657 348.782 38.1598 349.082 38.2496C349.381 38.3395 349.748 38.4228 350.155 38.4931C350.265 38.5076 350.376 38.5182 350.483 38.5243C350.59 38.5304 350.69 38.5318 350.778 38.5285C351.617 38.4293 352.597 38.6044 353.549 38.7702C354.502 38.9359 355.019 39.0357 355.722 39.1646L357.067 39.1819C357.407 39.2429 357.711 39.3147 357.954 39.3914C358.197 39.4682 358.372 39.5478 358.465 39.6239C358.393 39.7463 357.755 39.6792 357.375 39.6918C356.473 39.768 355.287 39.7518 354.013 39.6458C353.697 39.6067 353.374 39.6382 353.067 39.642C352.404 39.6572 351.767 39.682 351.159 39.7162C350.758 39.7481 350.384 39.7875 350.038 39.8343C349.946 39.9901 351.4 40.1104 350.575 40.1873C350.859 40.2225 350.965 40.2715 351.111 40.2538C352.047 40.355 352.969 40.405 353.771 40.398C355.309 40.3766 357.055 40.4476 358.867 40.6052C360.822 40.7685 362.698 40.8371 364.339 40.8053C364.965 40.8034 365.663 40.8368 366.382 40.903C367.232 40.9947 368.075 41.0524 368.858 41.0722C369.117 41.0729 369.406 41.0885 369.7 41.1178C369.995 41.147 370.288 41.1891 370.554 41.2405C370.531 41.2795 370.277 41.3077 370.334 41.3267C371.144 41.6181 371.472 41.9216 372.719 42.2193C373.571 42.3249 374.55 42.4461 375.107 42.3061C375.665 42.1661 375.465 42.0458 374.356 41.6875C374.596 41.6823 374.886 41.6991 375.175 41.7348C375.463 41.7705 375.732 41.823 375.934 41.883L376.893 42.1511L377.758 42.4075C377.682 42.5354 377.623 42.6356 377.56 42.7413C377.461 42.8536 377.57 42.9902 377.871 43.1321C378.052 43.2096 378.211 43.287 378.344 43.3638C378.884 43.671 379.041 43.9612 378.796 44.2021C378.326 44.5485 377.672 44.8672 376.842 45.1545C375.964 45.4341 375.484 45.7867 374.762 46.0913C374.393 46.23 373.945 46.3544 373.423 46.463C372.433 46.7046 371.348 46.9345 370.354 47.1817C369.36 47.4289 368.238 47.6064 367.135 47.8102C365.492 48.052 363.716 48.2608 361.817 48.4355C360.642 48.5885 359.435 48.7377 358.348 48.9136C357.064 49.1119 355.556 49.2543 353.861 49.3373C352.364 49.4366 351.026 49.5834 349.874 49.7751C349.753 49.7958 349.658 49.8222 349.59 49.8534C349.383 50.0488 348.801 50.1865 347.934 50.2455C347.987 50.3027 348.054 50.3609 348.136 50.4198C348.256 50.49 348.282 50.5557 348.208 50.6083C348.135 50.661 347.966 50.6982 347.724 50.7151C347.031 50.7635 346.455 50.8457 346.021 50.9581C345.862 50.9863 345.763 51.0273 345.733 51.0777C345.704 51.1281 345.743 51.1863 345.85 51.2474C345.944 51.3103 345.951 51.3681 345.87 51.4134C345.788 51.4587 345.623 51.4894 345.394 51.5015C344.807 51.561 344.179 51.6089 343.513 51.6448C342.096 51.724 340.448 51.7231 338.669 51.642C338.48 51.6186 338.289 51.6547 338.068 51.6273C336.809 51.5364 335.641 51.5224 334.703 51.5868C333.604 51.6119 332.454 51.6069 331.295 51.6186C329.621 51.6107 328.076 51.6585 326.704 51.7606C325.136 51.662 324.255 51.8335 322.931 51.8368C321.709 51.8544 320.551 51.8967 319.468 51.9632C317.721 52.0514 315.981 52.1286 314.259 52.2318C312.644 52.2811 311.157 52.3752 309.823 52.5125C309.312 52.5746 308.386 52.4779 308.038 52.608C307.69 52.738 306.988 52.7227 306.42 52.7658L304.628 52.8724C304.32 52.8978 303.981 52.9138 303.617 52.9204C301.952 52.9291 300.798 53.1027 299.252 53.1382L299.094 53.1186C296.349 53.3768 293.208 53.5185 289.763 53.5395C287.751 53.6187 285.55 53.6149 283.415 53.6729C282.905 53.789 281.702 53.646 281.064 53.752C280.425 53.858 279.381 53.7885 278.558 53.8059C277.734 53.8234 276.929 53.867 276.049 53.8654C275.284 53.8659 274.639 53.9133 274.171 54.0032C273.103 54.1517 271.802 54.2391 270.324 54.2613C268.37 54.2999 266.522 54.3875 264.534 54.3682C264.563 54.4765 264.441 54.5686 264.181 54.6351C263.921 54.7016 263.533 54.7401 263.056 54.7465C260.93 54.7879 259.003 54.8955 256.849 54.9273L256.273 54.9276L249.831 54.9898C248.096 55.0018 246.424 55.0216 244.654 55.0353C243.991 54.9532 243.974 55.0945 243.516 55.0676C243.388 54.998 243.237 54.9673 243.011 55.005L242.961 55.0885L235.61 55.1992C232.732 55.2801 229.704 55.3044 226.553 55.2718C225.805 55.28 225.108 55.3076 224.471 55.3543C223.88 55.3714 223.265 55.3789 222.628 55.3769C221.766 55.3558 220.924 55.3452 220.105 55.3451C217.951 55.3769 215.691 55.3598 213.332 55.3364C210.974 55.3131 209.187 55.3545 207.088 55.3514C205.667 55.3485 204.252 55.3345 202.78 55.3015C202.078 55.2862 201.212 55.2028 200.485 55.1725C199.757 55.1421 199.52 55.1425 199.423 55.1903C199.107 55.3243 198.311 55.2377 197.675 55.2246C196.434 55.2023 196.258 55.1566 195.921 54.8103L197.443 54.7003C197.817 54.6647 198.286 54.6585 198.806 54.6821C199.326 54.7058 199.88 54.7585 200.413 54.8352C200.623 54.8681 200.843 54.8941 201.059 54.9116C201.276 54.9292 201.485 54.938 201.674 54.9376C203.21 54.9188 204.725 54.8795 206.201 54.8473L206.417 54.8263L206.43 54.5174C206.235 54.4871 206.033 54.462 205.831 54.4431L198.426 54.2427C196.727 54.1935 194.963 54.0825 193.295 54.0372C191.628 53.9919 190.729 53.9643 189.435 53.9175C188.889 53.8908 188.333 53.8558 187.769 53.8127C187.802 53.7829 187.821 53.7513 187.825 53.7181C187.855 53.668 187.895 53.6012 187.655 53.5477C187.394 53.4721 187.045 53.4076 186.678 53.3669C186.333 53.3401 185.999 53.3249 185.688 53.322C184.186 53.2961 182.471 53.1329 180.908 52.8673L180.363 53.0446C178.016 52.945 175.634 52.8471 173.182 52.7525C172.691 52.7267 172.176 52.6772 171.675 52.6076C171.139 52.5412 170.645 52.4024 170.08 52.3264C169.522 52.2718 168.967 52.2292 168.427 52.1993C168.573 52.1537 168.766 52.1173 168.999 52.0911C169.229 52.0819 169.396 52.0534 169.477 52.0097C169.558 51.9661 169.548 51.9094 169.448 51.8481C169.274 51.7429 169.197 51.6438 169.577 51.6311C169.928 51.6071 170.18 51.5552 170.302 51.4814C170.423 51.4076 170.41 51.315 170.264 51.2146C170.2 51.1559 170.155 51.0985 170.129 51.0426L169.971 51.023C169.451 50.8152 168.411 50.7402 167.664 50.5701C167.312 50.5208 166.947 50.4924 166.628 50.4895C165.802 50.4529 164.998 50.437 164.144 50.391C163.737 50.3698 163.31 50.3312 162.89 50.2774C162.29 50.2031 162.227 50.1953 161.879 49.9252C162.42 49.93 162.849 49.8896 163.093 49.811C163.337 49.7324 163.382 49.6205 163.219 49.494C162.773 49.2178 162.301 48.9265 160.283 48.7302C160.941 48.7206 161.575 48.7013 162.181 48.6727C162.357 48.6665 162.489 48.6462 162.559 48.6145C162.629 48.5828 162.634 48.5412 162.573 48.4953C162.511 48.4494 162.387 48.4014 162.216 48.3577C162.046 48.3139 161.837 48.2766 161.618 48.2506C160.552 48.0943 159.441 47.9897 158.408 47.9486C157.538 47.9304 156.752 47.9406 155.736 47.9401L154.536 47.7916C154.556 47.7582 154.38 47.7125 154.424 47.6941C154.729 47.5229 155.066 47.3555 155.412 47.1715C154.859 47.0721 154.38 46.9521 154.029 46.8253C153.679 46.6984 153.471 46.5699 153.431 46.4543C153.401 46.4195 153.409 46.3877 153.454 46.3613C153.499 46.3348 153.58 46.3144 153.691 46.3014C154.007 46.279 154.251 46.2364 154.403 46.1766C154.556 46.1169 154.614 46.0416 154.573 45.9568L153.64 45.6441C150.831 45.4211 148.073 45.2617 145.416 45.169L143.017 45.0989C142.728 45.0153 142.818 44.9786 143.09 44.9765C143.362 44.9744 144.128 44.9976 144.663 45.0101C145.125 45.0265 145.535 45.0157 145.854 44.9788C146.172 44.9419 146.389 44.8801 146.482 44.7994L145.677 44.4429C145.716 44.3761 145.772 44.2815 146.209 44.2879C146.508 44.2801 146.727 44.2465 146.833 44.1925C146.939 44.1384 146.925 44.067 146.792 43.9898C146.772 43.934 146.802 43.8832 146.881 43.8396C147.527 43.836 148.17 43.838 148.756 43.821C149.029 43.8154 149.26 43.7947 149.432 43.7604C149.604 43.7261 149.715 43.679 149.755 43.6222C149.776 43.5669 149.725 43.5038 149.605 43.4381C149.485 43.3724 149.3 43.3059 149.064 43.244C148.146 43.1675 147.305 43.1665 146.728 43.2413C146.522 43.2999 146.191 43.3319 145.779 43.3331C145.367 43.3343 144.893 43.3047 144.419 43.248C143.877 43.1828 143.336 43.1541 142.894 43.1671C142.451 43.1802 142.136 43.2341 142.005 43.3193C141.449 43.2862 140.955 43.2609 140.468 43.2245C139.894 43.1786 139.352 43.1651 138.899 43.1854C138.175 43.1998 137.394 43.1914 136.576 43.1604C134.215 43.0831 131.852 43.0113 129.567 42.9791C128.962 42.9699 128.439 42.9947 127.841 42.9744C127.243 42.9541 126.77 43.009 126.022 42.8985C125.88 42.8813 125.737 42.8702 125.604 42.8662C125.471 42.8622 125.352 42.8653 125.257 42.8753C123.944 42.9627 122.404 42.975 120.728 42.9116C118.433 42.8961 116.053 42.8521 113.755 42.8422C113.08 42.8507 112.443 42.8737 111.85 42.9109C111.398 42.9333 110.926 42.9485 110.434 42.9564C110.057 42.9635 109.696 42.9427 109.76 43.064C109.823 43.1854 109.259 43.1095 108.933 43.087C107.814 43.0282 106.671 42.9486 105.516 42.849C104.378 42.7407 103.262 42.6778 102.237 42.6638C101.496 42.6557 100.732 42.6865 99.7801 42.5208C99.8164 42.4596 99.8526 42.3984 100.06 42.3345C99.2833 42.1586 98.3972 42.0074 97.4749 41.8931C96.5526 41.7789 95.6207 41.705 94.7561 41.6776L93.564 41.3448C93.2704 41.3057 92.9708 41.2773 92.6832 41.2612C92.3956 41.245 92.1262 41.2416 91.8912 41.2511C91.7096 41.2559 91.4884 41.2435 91.268 41.2163C91.0476 41.189 90.8429 41.1486 90.6915 41.1025C90.4651 41.0439 90.1887 40.9934 89.8966 40.9572C89.6046 40.921 89.3101 40.9008 89.0499 40.8992C88.2308 40.863 87.3564 40.7794 86.5163 40.6571C86.2983 40.5853 86.1617 40.5112 86.1233 40.4438C86.0849 40.3765 86.1466 40.3188 86.3005 40.278C86.5487 40.2059 86.688 40.114 86.7101 40.0079C86.7322 39.9018 86.6366 39.7838 86.429 39.6609C86.3227 39.5854 86.2872 39.514 86.3246 39.4509C86.362 39.3878 86.4715 39.3343 86.6466 39.2937C87.3001 39.1059 87.1253 39.0006 86.0561 38.689C85.8824 38.6371 85.673 38.5885 85.4413 38.5465C85.2096 38.5044 84.9605 38.4697 84.7099 38.4447C84.1219 38.3939 83.5419 38.3561 82.9806 38.332C82.6649 38.2929 82.3411 38.3245 81.9774 38.3093C80.1586 38.2333 79.8924 38.1108 79.3033 37.8467L78.8741 37.6562C78.0779 37.5019 77.2072 37.3737 76.3246 37.2809C75.442 37.1881 74.5696 37.133 73.7702 37.1196C73.4524 37.1186 73.0871 37.0922 72.7302 37.0446C71.5688 36.8988 70.3926 36.7979 69.2796 36.7486C68.586 36.7208 67.8384 36.649 67.1265 36.5418C66.4146 36.4345 65.7687 36.2964 65.2664 36.144C64.8152 36.0068 64.2249 35.8835 63.5776 35.7916C62.8199 35.6977 62.7498 35.5875 63.1729 35.5025C63.596 35.4176 64.3046 35.3083 64.9337 35.219C65.1525 35.1886 65.2881 35.1393 65.3254 35.0764C65.3627 35.0135 65.3001 34.9396 65.1447 34.8629C65.0449 34.7316 65.0276 34.6071 65.0932 34.4923C65.1283 34.4445 65.1041 34.3898 65.0222 34.3318C64.9404 34.2738 64.8028 34.2138 64.6187 34.1559C64.4346 34.098 64.2084 34.0436 63.9552 33.9962C63.702 33.9489 63.4277 33.9097 63.1509 33.8814C61.9828 33.7368 60.8462 33.596 59.6551 33.4903C59.1559 33.4404 58.6572 33.3787 58.1713 33.3065C57.1766 33.128 56.1124 32.98 55.0406 32.871C54.5319 32.8223 54.0346 32.7371 53.6563 32.6338C52.463 32.3557 51.3634 32.0633 50.3776 31.7619C50.1399 31.6685 49.829 31.5773 49.4643 31.4941C49.0996 31.4109 48.6889 31.3375 48.2581 31.2785C47.9108 31.2355 47.6281 31.1407 47.3605 31.0777C47.166 30.9318 47.1452 30.7968 47.3001 30.6854C47.455 30.5741 47.7806 30.4899 48.2462 30.4409C48.6877 30.3821 49.1008 30.3139 49.4825 30.2417C49.9426 30.1834 50.4895 30.1483 51.1029 30.1378C51.8295 30.1065 52.3667 30.017 52.6446 29.8809C50.6557 29.6346 48.7643 29.2809 47.0209 29.3635L45.6963 29.1398C45.7491 29.0507 45.7952 28.9729 45.8381 28.9005C46.1531 28.7689 46.2515 28.6028 46.125 28.4165C46.0206 28.3263 46.03 28.2443 46.1522 28.1787C46.2744 28.1131 46.5051 28.0662 46.8209 28.0428C48.6915 27.8027 50.8546 27.6407 52.6088 27.3682C53.1588 27.3171 53.8026 27.2939 54.5133 27.2995C55.2007 27.2832 55.172 27.1602 54.3808 27.0084C53.9368 26.9291 53.4842 26.8532 53.0247 26.7808C50.9986 26.7687 50.1732 27.1323 47.8611 27.031L46.7895 26.5519C46.4997 26.5445 46.2184 26.5416 45.9474 26.5432L42.0706 26.7379C41.7477 26.7476 41.4963 26.7809 41.3451 26.834C41.1938 26.887 41.1487 26.9577 41.215 27.038C41.2412 27.1362 41.1878 27.2263 41.0567 27.3051C40.9721 27.3602 41.0262 27.4334 41.2071 27.5088C41.6147 27.6787 41.0917 27.7035 40.7614 27.7462C40.677 27.7504 40.5796 27.75 40.475 27.7449C40.3704 27.7399 40.2605 27.7304 40.1519 27.7169C40.0432 27.7035 39.9379 27.6863 39.842 27.6665C39.7461 27.6467 39.6616 27.6246 39.5933 27.6016C39.0114 27.4399 38.5024 27.2694 37.9304 27.091C38.3365 26.9204 37.8586 26.6402 38.4924 26.4858C38.5632 26.455 38.5916 26.4174 38.5757 26.3754C38.5598 26.3333 38.5 26.2878 38.3999 26.2415C38.1419 26.1219 38.019 26.0053 38.0436 25.9035C38.0683 25.8017 38.2396 25.7183 38.5403 25.6616L38.5765 25.6004C37.7835 25.3947 37.9936 25.2117 37.6821 24.994L36.9192 24.8517C35.0212 24.5092 35.0179 24.5147 33.3839 24.5273C33.0545 24.397 33.473 24.3771 33.7868 24.3623L36.415 24.216C38.1334 24.1183 39.9018 24.0506 41.8214 24.0137C43.741 23.9767 45.881 23.8536 47.8652 23.7649C47.9655 23.758 48.0422 23.7444 48.089 23.7253C48.1357 23.7062 48.151 23.682 48.1337 23.6548C48.0549 23.6255 47.9516 23.5971 47.8317 23.5719C47.7117 23.5468 47.578 23.5253 47.4406 23.5093C46.8091 23.4311 46.1613 23.3807 45.4884 23.3153L44.2341 23.2017L43.8482 23.0524C43.597 22.9616 43.4254 22.8507 43.0914 22.7855C42.816 22.7368 42.5172 22.6999 42.2259 22.6785C41.9346 22.6571 41.6615 22.6521 41.4352 22.664C40.8076 22.6937 40.2398 22.7369 39.6404 22.7761C39.0411 22.8153 38.7108 22.858 38.1911 22.8773C37.1352 22.886 36.1147 22.9092 35.1341 22.9466C34.3081 23.035 33.5442 23.1399 32.847 23.2605C32.4121 23.3082 32.0054 23.3653 31.2628 23.3032C30.9105 23.2468 30.6067 23.1729 30.4051 23.0943C30.2035 23.0158 30.1172 22.9378 30.1616 22.8741C30.2015 22.8243 30.3143 22.7848 30.4894 22.7595C30.6645 22.7341 30.8961 22.7238 31.1624 22.7294C31.9078 22.7202 32.5971 22.6893 33.2163 22.6374C34.0783 22.5433 35.1276 22.5027 36.303 22.518C36.7016 22.5316 36.9688 22.481 37.3175 22.4645C37.6661 22.448 37.9615 22.4069 38.3503 22.4372C39.5579 22.5151 40.137 22.3957 40.8607 22.3181C41.1057 22.2837 41.2575 22.2281 41.2994 22.1574C41.3413 22.0868 41.2716 22.0037 41.0981 21.9175C40.7641 21.7458 40.3555 21.5731 39.8787 21.4022C39.6333 21.3182 39.3188 21.2384 38.9601 21.1691C38.6014 21.0998 38.208 21.0429 37.8109 21.0028C37.5733 20.8976 37.4466 20.7942 37.4421 20.7019C37.4376 20.6096 37.5557 20.5313 37.7855 20.4741C38.3711 20.3436 38.8903 20.2108 40.2026 20.2838C40.8196 20.3116 41.4002 20.317 41.9214 20.2996C43.0776 20.2758 44.4111 20.3279 45.7965 20.4511C46.155 20.4826 46.5073 20.5041 46.8431 20.515C49.2381 20.5907 51.52 20.6284 53.8086 20.6551C55.0209 20.6679 56.2432 20.664 57.5088 20.7013C60.4768 20.7823 63.1786 20.7406 66.0434 20.767C67.5438 20.7806 68.8868 20.7261 70.0019 20.6063C70.219 20.5662 70.4055 20.5193 70.5592 20.4663C69.8202 20.3272 69.0086 20.2171 68.2019 20.1465C67.3953 20.0758 66.6207 20.0471 65.9524 20.063C65.585 20.1019 65.1101 20.109 64.5807 20.0835C64.0513 20.058 63.4882 20.0009 62.9542 19.9186L64.5068 19.872C65.5363 19.8502 66.5908 19.8435 67.592 19.8122C69.1828 19.7584 70.657 19.6722 72.3043 19.6374C73.6342 19.6053 74.8243 19.5234 75.8372 19.3941C76.5689 19.2999 77.4047 19.233 78.3274 19.1949C78.9833 19.1747 78.9833 19.1747 79.4026 18.9817C79.0699 18.8569 78.6398 18.8395 78.2345 18.8371C75.8051 18.7586 73.4932 18.7448 71.3458 18.7961C70.2623 18.8006 69.3011 18.8535 68.5083 18.9523C68.3142 18.9939 67.8176 18.9742 67.4189 18.9607C66.1693 18.9401 64.975 18.946 63.8502 18.9785C62.2952 19.0326 60.5633 19.0198 58.7218 18.9405C58.3726 18.8435 58.7745 18.8515 58.7943 18.8181C60.2206 18.7559 61.6186 18.6842 63.0731 18.6314C63.4707 18.6126 63.8958 18.6033 64.3434 18.6036C66.0147 18.6363 67.4073 18.5457 68.3263 18.3445C68.3725 18.2666 68.977 18.2758 69.2442 18.2252C69.3756 18.1815 69.4631 18.13 69.5042 18.0723C69.115 17.9286 68.6749 17.9278 68.3361 17.9276C67.3531 17.9437 66.4073 17.9741 65.5034 18.0187C64.6632 18.0612 63.7331 18.0726 62.7384 18.0525C62.0043 18.0332 61.3767 18.063 60.636 18.0549C60.2343 18.0378 59.8183 18.0103 59.3968 17.9731C59.8662 17.8729 60.5042 17.8112 61.266 17.7925C61.8437 17.7327 62.566 17.7146 62.6583 17.5589C62.3855 17.4474 62.0815 17.4456 61.8374 17.4572C61.3294 17.4568 60.8387 17.4638 60.3678 17.4782C59.3695 17.5099 58.2885 17.5103 57.1477 17.4795C56.547 17.468 55.977 17.4715 55.4472 17.4899C54.2466 17.5144 53.096 17.5689 51.9968 17.594C49.745 17.6197 47.6912 17.7117 45.5275 17.7602C45.0459 17.7723 44.6143 17.8143 43.9796 17.7417C43.3449 17.6691 43.3166 17.6596 43.2417 17.6145C43.0641 17.5392 43.0103 17.4663 43.0914 17.4107C43.2173 17.3589 43.4625 17.33 43.7835 17.3292C45.7177 17.2467 47.5522 17.1309 49.2756 16.9823C50.0341 16.9525 50.6986 16.8918 51.2461 16.8023C51.6802 16.7407 52.1953 16.6999 52.775 16.6812C53.6182 16.6366 54.4972 16.6039 55.4085 16.5833C55.8325 16.5722 56.193 16.5392 56.4689 16.4862C56.7447 16.4332 56.9303 16.3612 57.0146 16.2746L55.8975 15.987C55.722 15.9736 55.5478 15.962 55.3759 15.9522L46.1034 16.1594L45.1851 16.1651C44.1786 16.148 43.9327 16.1056 42.978 15.7723C45.1567 15.6939 46.8695 15.4654 47.9456 15.1096C47.687 15.0713 47.4218 15.0385 47.1563 15.0118C45.4152 14.9277 43.7692 14.9053 42.2819 14.9456C41.3984 14.9496 40.49 14.9387 39.5783 14.9332C39.8449 14.7692 40.8664 14.8181 41.5322 14.7811C43.123 14.7232 44.5297 14.6037 45.7073 14.4263C46.1134 14.3571 46.6213 14.3129 47.208 14.2956C47.7951 14.2897 48.2855 14.2478 48.6366 14.1737C48.9876 14.0996 49.1887 13.9954 49.2222 13.8703C49.2775 13.757 49.3967 13.6517 49.5779 13.556C49.2573 13.4202 48.7481 13.2902 48.1459 13.1904C47.5437 13.0905 46.89 13.0276 46.3074 13.0136C45.0636 12.9577 43.7735 12.8662 42.47 12.7414C41.8207 12.6784 41.1839 12.6423 40.6012 12.6353C40.0873 12.63 39.5032 12.5845 38.938 12.5059C38.3727 12.4272 37.8574 12.3198 37.4706 12.1998C36.9485 12.0515 36.4612 11.9016 35.974 11.7517C35.4867 11.6018 34.9213 11.4123 34.3526 11.2284C33.8511 11.1996 33.3628 11.1811 32.8943 11.1732C32.5297 11.1799 32.1044 11.1599 31.6684 11.1154C31.2324 11.0709 30.8039 11.0039 30.4336 10.9222C30.6508 10.8416 30.8963 10.7705 31.155 10.6771C30.7999 10.5538 30.5425 10.428 30.3984 10.3075C30.2543 10.187 30.2264 10.0742 30.3166 9.97606C30.3694 9.88704 29.9834 9.73772 29.8501 9.61968C29.6784 9.51792 29.6461 9.42296 29.7575 9.34723C29.8689 9.27151 30.1188 9.21857 30.4744 9.19536C30.9154 9.1525 31.2743 9.08797 31.5364 9.0044C31.6231 8.98271 31.6672 8.953 31.6647 8.91799C31.6623 8.88298 31.6133 8.8438 31.5222 8.80401C31.4312 8.76422 31.301 8.7251 31.1436 8.69023C30.9862 8.65537 30.8067 8.62586 30.6213 8.60441C30.0534 8.54361 29.4894 8.5042 28.9617 8.48845C28.0526 8.45946 27.1823 8.44126 26.3509 8.43383C25.4313 8.42265 24.4082 8.35363 23.3856 8.23379C22.4701 8.1204 21.6493 8.01874 21.2016 7.80205C20.7539 7.58536 20.0382 7.59227 19.4878 7.43452C19.797 7.29233 20.3465 7.19353 21.0809 7.1481C21.5614 7.13188 21.9626 7.08932 22.2586 7.02314C22.5546 6.95696 22.7389 6.86862 22.7997 6.76379L21.1288 6.32393C19.7943 6.11686 19.056 6.27624 17.6142 6.19321L19.0998 6.03084C19.1297 6.01479 19.1408 5.99595 19.1328 5.9752C18.9885 5.6468 18.7591 5.57657 17.2404 5.39445L16.388 5.28889L15.039 5.1636C14.8229 5.0963 14.6735 5.02612 14.6056 4.96006C14.5377 4.89401 14.5537 4.83441 14.6521 4.78723C14.8497 4.70788 14.9098 4.60647 14.8268 4.49236C14.696 4.41677 14.6852 4.34708 14.7963 4.29539C14.9074 4.2437 15.1334 4.21326 15.4351 4.20938C15.6759 4.20337 15.6937 4.116 15.8247 4.06654C15.9549 3.99835 16.1776 3.94603 16.4778 3.91314C16.778 3.88024 17.1485 3.86753 17.5642 3.87589C18.79 3.88271 19.9415 3.85712 20.9982 3.79956L20.8088 3.7761C21.9103 3.82663 22.94 3.83276 23.8479 3.79419C24.7578 3.74563 25.9254 3.77678 26.8918 3.74717C27.6786 3.75396 28.2775 3.68676 28.5617 3.55984C28.8368 3.43864 29.8367 3.46693 30.6023 3.4901C31.0559 3.50508 31.4943 3.51143 31.9128 3.50907C32.4745 3.48164 33.1768 3.5075 33.9026 3.58233C34.1204 3.60533 34.3349 3.6175 34.5255 3.61768C36.3707 3.64913 38.2125 3.68615 40.0327 3.70257C40.4528 3.69311 40.9455 3.71476 41.4528 3.76499C41.6661 3.78679 41.8736 3.79582 42.0476 3.79087C44.9237 3.74099 48.1692 3.86825 50.9887 3.79942C51.3305 3.78317 51.7088 3.77979 52.113 3.78937C53.0213 3.8298 53.8101 3.80378 54.3596 3.71527C54.6561 3.66819 55.0362 3.64225 55.4756 3.6391C55.9151 3.63595 56.4043 3.65565 56.912 3.69697C57.7569 3.75167 58.5378 3.75759 59.1722 3.71414C60.4093 3.67398 61.7102 3.65747 63.0647 3.66473C63.4798 3.67176 63.8446 3.65615 64.131 3.61913C64.4174 3.58211 64.6176 3.52465 64.7161 3.45123C64.3835 3.32642 64.0197 3.31123 63.6744 3.3222C62.3357 3.29376 61.0004 3.25976 59.6867 3.24635C58.5109 3.20807 57.3827 3.19636 56.3187 3.21142C55.7903 3.22839 55.1311 3.18968 54.4848 3.10372C53.6927 2.99487 52.8769 2.94078 52.2023 2.95241C51.7022 2.9553 51.1743 2.94593 50.6262 2.92442C50.2754 2.89849 49.9159 2.85395 49.5844 2.7954C49.4529 2.76996 49.3097 2.74857 49.1641 2.7326C49.0185 2.71664 48.8737 2.70645 48.7388 2.70267C48.6039 2.69889 48.4819 2.7016 48.3807 2.71065C48.2795 2.7197 48.2014 2.73489 48.1511 2.75523C47.6436 2.92529 46.509 2.8385 45.5374 2.81969C44.0814 2.53186 42.9978 2.70222 41.6369 2.53965C41.5293 2.52888 41.4233 2.52235 41.3253 2.52048C41.2274 2.51862 41.1396 2.52146 41.0672 2.52881C38.4338 2.62666 35.3645 2.54512 32.5996 2.57891C32.2947 2.58385 31.9407 2.56691 31.5781 2.53003C29.2078 2.28588 26.9289 2.21657 25.1868 2.33564C24.9749 2.34637 24.7337 2.34683 24.4744 2.33699C23.2834 2.23996 22.1444 2.20127 21.1525 2.22416C19.5981 2.21677 18.1035 2.22276 16.5241 2.20034C15.4354 2.16842 14.4802 2.20252 13.7544 2.29923C13.7314 2.33817 13.2479 2.2962 12.8775 2.29214C12.6645 2.1941 12.4799 2.10554 12.2603 2.01862C12.064 1.91109 11.7699 1.80228 11.3982 1.69956C11.0264 1.59684 10.5856 1.50263 10.1055 1.42329C9.28466 1.32163 9.20257 1.1741 9.77693 1.11983C11.2574 0.940264 13.1189 0.866771 15.2248 0.904741C16.9851 0.907775 18.7771 0.914727 20.5624 0.932799C21.6037 0.948303 22.7015 0.98274 23.7146 0.98877C24.0564 1.00202 24.4075 1.02154 24.7644 1.04713C25.2022 1.08424 25.6273 1.10446 26.0168 1.1067C27.2675 1.07545 28.6632 1.10267 30.1374 1.18706C30.6774 1.20547 31.1959 1.21167 31.6852 1.20558C32.8428 1.18267 34.0978 1.19953 35.417 1.25571C36.2369 1.28738 37.0318 1.30395 37.7937 1.30522C38.0627 1.30868 38.2818 1.28207 38.541 1.30222C40.8221 1.51308 42.4372 1.36078 44.4902 1.44186C45.488 1.46447 46.4413 1.46453 47.3366 1.44205C49.084 1.44314 50.88 1.46626 52.7176 1.51131C55.1475 1.58532 57.3993 1.55964 59.7194 1.5902C60.1774 1.59662 60.6197 1.59553 61.043 1.58692C63.102 1.53004 65.3383 1.54211 67.6976 1.62281C68.2333 1.63447 68.7144 1.62021 69.1108 1.58094C69.5073 1.54167 69.8105 1.47823 70.0016 1.39458C70.0824 1.33718 70.03 1.26261 69.8545 1.18527C69.5633 1.08651 69.2345 0.989736 68.8735 0.896556L55.741 0.583878C55.1894 0.567551 54.6515 0.558761 54.13 0.557547C52.5963 0.554828 51.0153 0.530504 49.3951 0.484694C47.794 0.441664 46.2645 0.449302 44.7133 0.436347C44.2564 0.432007 43.7874 0.421767 43.3083 0.405657C40.0696 0.278154 36.9115 0.200278 33.8562 0.172585C32.5708 0.168655 31.1822 0.110139 29.8719 0.0911732C28.5615 0.0722053 26.7695 0.0652622 25.2151 0.0578694L20.4025 0.0590037C19.4559 0.0552313 18.5342 0.0664908 17.6159 0.0721907C16.5014 -0.334573 16.1174 -0.429914 14.6303 -0.608122C14.1216 -0.673859 13.6041 -0.713088 13.1385 -0.721217C11.6623 -0.689062 9.81006 -0.822916 8.41017 -0.805194C7.56546 -0.813936 6.84868 -0.768748 6.33322 -0.674258C5.88576 -0.600101 5.37409 -0.541422 4.8061 -0.499108C3.25018 -0.847084 3.11306 -1.07308 4.28347 -1.16103C4.60057 -1.18148 5.03736 -1.17515 5.26634 -1.21845C5.39773 -1.24483 5.57722 -1.25991 5.79051 -1.26252C6.0038 -1.26512 6.24498 -1.25519 6.49515 -1.23348C7.28469 -1.17653 8.02472 -1.16314 8.64098 -1.19465C9.22095 -1.23634 9.93187 -1.23468 10.7052 -1.18981C11.2735 -1.11943 11.7729 -1.21881 12.2644 -1.24752C12.7558 -1.27623 13.1591 -1.32781 13.9267 -1.25066C14.0672 -1.2353 14.2068 -1.22607 14.3346 -1.2237C14.4624 -1.22133 14.5752 -1.22586 14.6641 -1.23696C15.4885 -1.28665 16.4723 -1.28143 17.5355 -1.22173C19.1663 -1.16298 20.6963 -1.16077 22.0726 -1.21519C22.8964 -1.26281 23.5988 -1.34725 24.1523 -1.46522C24.3032 -1.50467 24.5272 -1.52833 24.803 -1.53393C26.1877 -1.50931 27.6913 -1.41668 29.2167 -1.26199C29.7913 -1.20001 30.3653 -1.15099 30.9262 -1.11596C32.079 -1.03815 33.194 -0.994545 34.2381 -0.986442C35.7554 -0.985158 37.3351 -0.95522 38.9632 -0.896898C39.968 -0.864425 40.9362 -0.85244 41.8563 -0.861072C42.802 -0.865141 43.8117 -0.840371 44.8625 -0.787336C45.9075 -0.744119 46.8285 -0.769019 47.5143 -0.859026C47.7401 -0.907527 47.922 -0.965121 48.0566 -1.03073C46.5265 -1.24424 44.944 -1.35274 43.6278 -1.3344C43.1279 -1.34854 42.7128 -1.33427 42.186 -1.41743L42.1695 -1.38961C42.0647 -1.37156 41.9065 -1.3673 41.7252 -1.37765C41.5438 -1.38799 41.352 -1.41222 41.1862 -1.44571C41.2488 -1.55141 41.3082 -1.65156 41.351 -1.72389C42.3539 -1.71113 43.3276 -1.71216 44.2672 -1.72699C45.0593 -1.74833 46.1345 -1.56141 46.8201 -1.63177C48.1573 -1.54379 49.0088 -1.66527 50.2079 -1.63022C51.4071 -1.59516 52.7279 -1.47936 53.927 -1.4443C54.9734 -1.42507 55.9895 -1.42088 56.9695 -1.43178C57.3077 -1.44707 57.6977 -1.44348 58.1154 -1.42124C58.7026 -1.37938 59.2488 -1.37237 59.6913 -1.401C60.1337 -1.42964 60.4547 -1.49277 60.6173 -1.58315C60.4642 -1.66781 60.2578 -1.77697 60.0199 -1.89005C60.4576 -1.98297 61.1225 -2.02209 61.9158 -2.0016L63.0368 -2.00609C63.3339 -2.00364 63.5609 -2.02876 63.6711 -2.07625C63.7812 -2.12374 63.766 -2.18997 63.6286 -2.26125C61.503 -2.62006 61.4248 -2.65962 59.8647 -2.42883L57.7933 -2.53607L57.8282 -2.53772ZM85.8451 -1.55208L85.6873 -1.57162L85.8451 -1.55208ZM343.978 36.6232L343.942 36.6844L343.981 36.6177L344.328 36.6607L344.351 36.6217L343.978 36.6232ZM293.557 9.79924C293.067 9.73247 292.571 9.67109 292.074 9.61547C291.943 9.60684 291.822 9.60489 291.718 9.60979C291.615 9.61468 291.534 9.62627 291.481 9.64357C291.441 9.71033 291.719 9.75666 291.971 9.78794C292.29 9.83004 292.615 9.85679 292.914 9.86544C293.213 9.87409 293.474 9.86432 293.671 9.83714L293.956 9.81278L293.557 9.79924ZM40.7375 26.0711C41.0606 26.0824 41.3671 26.0842 41.6493 26.0766C42.9012 26.0226 44.0998 25.9441 45.3833 25.8941C47.0028 25.767 48.8637 25.7153 50.8962 25.7408C51.6902 25.7532 52.3611 25.7121 52.8304 25.622C53.1114 25.5737 53.474 25.5455 53.8962 25.539L59.2696 25.3924C59.6017 25.3619 59.8889 25.3192 60.1243 25.2653C59.6507 25.2067 59.3351 25.1676 59.1456 25.1441C58.7526 25.1375 58.4148 25.1554 58.166 25.196C57.8989 25.2647 57.4472 25.2919 56.9009 25.2722C56.3493 25.2558 55.8114 25.2471 55.29 25.2458C54.3052 25.2493 53.3137 25.2638 52.3257 25.2729C51.9412 25.4641 50.8066 25.3773 49.835 25.3585L49.0844 25.3671C46.6308 25.4662 44.2872 25.6026 42.0647 25.7757C41.6352 25.8049 41.2652 25.8516 40.966 25.9143C40.8533 25.9632 40.8172 26.0241 40.8605 26.0923L40.7027 26.0728L40.7375 26.0711ZM150.301 44.3587C150.897 44.3718 151.516 44.3985 152.152 44.4386C152.641 44.4796 153.119 44.5044 153.565 44.5122C156.068 44.5551 158.676 44.6541 161.354 44.8079C161.704 44.8312 162.04 44.8426 162.35 44.8418L164.542 44.8027C165.233 44.7808 165.246 44.7585 164.743 44.4633C164.326 44.406 163.904 44.3538 163.48 44.3069C163.228 44.2756 162.817 44.2248 162.721 44.2726C162.136 44.4031 161.067 44.3186 160.169 44.2909C157.568 44.2196 154.886 44.1143 152.26 44.028C151.704 44.0069 151.167 43.9962 150.652 43.9961C150.332 43.9916 150.041 44 149.79 44.0207C149.717 44.0228 149.655 44.029 149.61 44.0388C149.565 44.0487 149.536 44.0619 149.527 44.0777C149.517 44.0935 149.527 44.1114 149.556 44.1304C149.584 44.1494 149.63 44.1689 149.691 44.1876C149.906 44.2533 150.154 44.3163 150.428 44.3744L150.301 44.3587ZM169.355 1.51702L171.917 1.48202C172.224 1.47827 172.485 1.43887 172.814 1.45572C174.568 1.50911 176.193 1.49424 177.618 1.41174C178.103 1.37807 178.671 1.37134 179.29 1.39192C181.186 1.45288 182.974 1.45539 184.606 1.39937C185.661 1.38812 186.648 1.35036 187.553 1.28664C187.623 1.27185 187.666 1.25177 187.681 1.22776C187.695 1.20376 187.68 1.1764 187.636 1.14755C187.624 1.12933 187.593 1.10972 187.545 1.09008C187.496 1.07045 187.432 1.05125 187.355 1.03381C187.278 1.01637 187.192 1.00111 187.101 0.989076C187.01 0.977039 186.918 0.968508 186.829 0.964081C185.686 0.877829 184.601 0.847781 183.662 0.876376C182.792 0.910589 181.855 0.920601 180.866 0.906254C179.919 0.902481 179.277 1.01404 178.107 0.928917C177.613 0.900884 177.176 0.910113 176.872 0.955056C176.259 1.02955 175.404 1.03369 174.459 0.966749C173.893 0.932869 173.353 0.91834 172.858 0.923715C171.657 0.948207 170.51 0.997208 169.398 1.04456C169.047 1.05551 168.671 1.05702 168.277 1.04906L162.706 0.956344C161.368 0.927902 160.032 0.893898 158.719 0.880494C157.644 0.851392 156.644 0.860506 155.754 0.907518C154.805 0.956928 153.771 0.976987 152.669 0.967317C150.959 0.994358 149.258 1.0047 147.396 1.00106C146.209 1.0033 144.993 0.996068 143.753 0.973795C143.125 0.945127 142.592 0.968472 142.257 1.03933C142.053 1.09767 141.573 1.05015 141.174 1.03661C139.048 0.906112 137.054 0.875193 135.331 0.946C135.111 0.957539 134.87 0.961715 134.612 0.958459C132.953 0.956029 131.234 0.940212 129.642 0.940038C129.222 0.945539 128.828 0.960634 128.463 0.985132C128.502 1.0251 128.613 1.06842 128.774 1.10611C128.935 1.14379 129.132 1.17296 129.326 1.18754C130.832 1.29921 132.286 1.35819 133.628 1.36203C135.86 1.34781 138.199 1.37979 140.62 1.45763C142.498 1.53611 144.21 1.51958 145.63 1.40929C146.739 1.32699 148.183 1.35796 149.712 1.49687C150.366 1.56321 151.002 1.58974 151.531 1.57283C152.04 1.55064 152.624 1.55602 153.25 1.58865C154.568 1.65069 155.836 1.67946 157.028 1.67442C158.194 1.65158 159.281 1.58919 160.479 1.57026C161.676 1.55133 163.499 1.56218 164.976 1.53002C166.452 1.49787 167.912 1.49354 169.355 1.51702ZM63.1825 -1.73723C63.3177 -1.56521 63.7965 -1.45813 64.3115 -1.41226C66.0871 -1.20859 67.8425 -1.12191 69.283 -1.16679C70.0611 -1.22939 71.0984 -1.2053 72.1911 -1.09924C73.4635 -0.988985 74.6527 -0.9707 75.5493 -1.04761C75.7689 -1.06104 75.9371 -1.08945 76.0388 -1.1303C76.0586 -1.16368 76.0949 -1.22488 76.1015 -1.23601C76.0073 -1.26423 75.8918 -1.29037 75.7638 -1.31243C75.6359 -1.33449 75.499 -1.35187 75.3636 -1.36322L69.4823 -1.56014L68.4574 -1.60348C66.5854 -1.717 64.8016 -1.76223 63.1825 -1.73723ZM74.7511 0.985513C75.669 1.26642 75.6722 1.26084 76.1425 1.32505C78.4112 1.59178 80.6783 1.73576 82.6741 1.73987C83.1177 1.73905 83.4942 1.71194 83.7716 1.6608C83.9143 1.65387 84.0052 1.63185 84.0243 1.59954C84.0435 1.56724 83.9894 1.52726 83.8738 1.48833L83.1439 1.29044C81.8183 1.20476 80.5117 1.13669 79.2321 1.08663C77.7422 1.02751 76.4218 1.02523 74.8773 1.00114L74.7511 0.985513ZM150.191 43.1149C151.047 43.5015 151.05 43.4959 152.482 43.5957C153.48 43.6663 154.448 43.7078 155.357 43.7189C156.468 43.7311 157.607 43.7527 158.715 43.7705C158.986 43.7828 159.215 43.7726 159.358 43.7418C159.502 43.711 159.549 43.6619 159.492 43.6039C159.346 43.541 159.119 43.4801 158.846 43.4312C158.574 43.3823 158.272 43.3482 157.991 43.3344L157.386 43.3252C156.652 43.306 155.89 43.2772 155.181 43.273C154.721 43.289 154.188 43.2766 153.623 43.2368C153.059 43.197 152.479 43.1307 151.928 43.0434L150.191 43.1149ZM79.3183 -1.23174C79.5467 -1.16479 79.805 -1.10066 80.0863 -1.04107C81.1757 -0.875898 82.3286 -0.782087 83.3192 -0.778027C83.7875 -0.767796 84.2158 -0.804327 84.6927 -0.75124C85.5479 -0.680301 86.3768 -0.642513 87.1345 -0.639921C87.1345 -0.639921 87.3469 -0.655411 87.4167 -0.658719L87.5617 -0.903515C87.2031 -0.960224 86.829 -1.00655 86.4568 -1.04037C85.2076 -1.1055 83.9802 -1.15002 82.756 -1.20011C81.5319 -1.25021 81.105 -1.27321 80.3045 -1.29473C79.9474 -1.2829 79.6171 -1.26181 79.3183 -1.23174ZM52.268 29.2012L53.9027 29.7023C54.4316 29.7458 54.9258 29.7537 55.31 29.7247C55.6942 29.6958 55.9473 29.6316 56.0309 29.5419C56.1655 29.4999 56.179 29.4377 56.0685 29.3683C55.9579 29.299 55.732 29.2278 55.4381 29.1698C55.1552 29.1011 54.8323 29.0394 54.4892 28.9887C54.1462 28.938 53.7905 28.8994 53.444 28.8751L52.268 29.2012ZM65.8782 26.7065C64.809 26.6216 63.7864 26.5868 62.8885 26.605C62.3228 26.6547 61.5562 26.6388 60.746 26.5606C59.2727 26.4047 57.8523 26.3616 56.7848 26.4402C56.7848 26.4402 56.7451 26.507 56.5642 26.5264C56.3833 26.5458 57.1009 26.5929 57.2587 26.6124C58.4165 26.6602 59.5808 26.6969 60.5872 26.7141C61.2121 26.7134 61.873 26.7291 62.5587 26.7612C63.502 26.8106 64.3967 26.8266 65.2077 26.8086C65.2077 26.8086 65.5215 26.7937 65.8749 26.7121L65.8782 26.7065ZM180.059 0.60926C179.548 0.514899 178.995 0.438206 178.439 0.38494C177.884 0.331676 177.341 0.303225 176.852 0.301709C176.478 0.296786 176.175 0.3217 175.992 0.372514C175.808 0.423326 175.754 0.49714 175.839 0.582281C176.218 0.629201 176.723 0.691761 177.007 0.726951C177.992 0.723507 178.832 0.678261 180.059 0.60926ZM275.653 8.56114C275.243 8.48517 274.792 8.4271 274.351 8.39353C273.909 8.35997 273.495 8.35228 273.156 8.37134C272.982 8.37961 273.1 8.46592 273.071 8.51599C273.051 8.52735 273.051 8.54146 273.071 8.55687C273.091 8.57228 273.13 8.58841 273.183 8.60357C273.236 8.61873 273.303 8.63236 273.375 8.64304C273.447 8.65372 273.522 8.66105 273.593 8.66426C274.037 8.69698 274.457 8.70672 274.814 8.69261C275.171 8.6785 275.455 8.64098 275.64 8.58339L275.653 8.56114ZM282.058 9.64704C281.995 9.60221 281.86 9.5555 281.678 9.51545C281.496 9.4754 281.28 9.4447 281.069 9.42899C280.696 9.42688 280.357 9.43931 280.064 9.46581C279.747 9.48626 279.976 9.61603 280.404 9.69303C280.586 9.72393 280.78 9.74804 280.971 9.76343C281.162 9.77883 281.345 9.78507 281.505 9.78169C281.665 9.77831 281.797 9.76537 281.892 9.74393C281.987 9.72249 282.042 9.69312 282.052 9.65816L282.058 9.64704ZM95.9456 -0.754973C94.99 -0.91513 94.2545 -0.874838 93.4454 -0.939209C92.6364 -1.00358 92.4371 -1.01035 92.5455 -0.907347C92.6539 -0.804344 93.2085 -0.825233 93.5557 -0.782222C94.0249 -0.725151 94.497 -0.69238 94.919 -0.687566C95.3411 -0.682753 95.6965 -0.706093 95.9456 -0.754973ZM295.071 26.3438C294.564 26.3078 294.069 26.2824 293.591 26.268C293.528 26.2829 293.488 26.3024 293.475 26.3253C293.461 26.3482 293.474 26.3741 293.512 26.4015C293.512 26.4015 293.836 26.4834 294.025 26.5069C294.723 26.5874 294.757 26.4722 295.071 26.3438ZM366.608 41.2654C366.951 41.3735 367.111 41.4471 367.385 41.4989C367.511 41.517 367.641 41.53 367.766 41.5372C367.891 41.5444 368.007 41.5455 368.106 41.5405C368.226 41.5093 368.255 41.4616 368.185 41.4069C368.185 41.4069 367.836 41.31 367.703 41.3054C367.324 41.2825 366.956 41.2691 366.608 41.2654ZM79.6801 -1.67066C78.954 -1.76059 78.2594 -1.84662 77.7567 -1.74167C78.9097 -1.62873 78.9097 -1.62872 79.6801 -1.67066ZM91.4406 -0.64407C90.7074 -0.836402 90.2772 -0.853856 89.9252 -0.831757C89.8504 -0.826192 89.8009 -0.813786 89.7842 -0.796423C89.7675 -0.779062 89.7844 -0.757687 89.8326 -0.735531C89.8807 -0.713375 89.9573 -0.691646 90.0509 -0.673627C90.1445 -0.655609 90.2499 -0.642284 90.3512 -0.635668C90.7335 -0.630132 91.0982 -0.632943 91.4406 -0.64407ZM129.177 -0.562741C129.193 -0.590559 129.213 -0.62394 129.024 -0.6474C128.974 -0.65931 128.916 -0.669551 128.855 -0.677101C128.794 -0.684651 128.732 -0.689238 128.676 -0.690405C128.676 -0.690405 128.657 -0.657023 128.644 -0.634769L129.177 -0.562741ZM155.382 45.621L154.96 45.6464L155.15 45.6699L155.65 45.684L155.382 45.621ZM303.868 9.21297C303.71 9.19341 303.552 9.17386 303.529 9.21281C303.496 9.21884 303.475 9.22755 303.469 9.23819C303.462 9.24884 303.471 9.26111 303.493 9.27401C303.493 9.27401 303.714 9.30138 303.808 9.31311L303.868 9.21297ZM279.284 9.52444C279.18 9.52221 279.087 9.52482 279.009 9.53211L278.989 9.56549L279.305 9.6046L279.284 9.52444ZM65.0444 17.4781C64.9224 17.4579 64.7932 17.4419 64.6656 17.4312L64.5076 17.4117C64.5076 17.4117 64.6773 17.4685 64.772 17.4802C64.8667 17.492 64.9431 17.4775 65.0444 17.4781Z"
			fill="#DF6951"
		/>
	</g>
</svg>
