<svg width="113" height="34" viewBox="0 0 113 34" fill="none" xmlns="http://www.w3.org/2000/svg">
	<path d="M72.7396 28.3042L82.0677 31.3042L89.9229 23.3042L99.742 30.3042L110.052 28.3042L105.633 13.8042L89.9229 18.8042L81.0858 13.8042L71.7577 15.3042L72.7396 28.3042Z" fill="#F1A501"/>
	<path d="M0 23.368V21.206L6.0073 20.102V23.092C6.03741 24.7173 6.44392 25.944 7.22683 26.772C8.03984 27.5693 9.10881 27.968 10.4337 27.968C11.7285 27.968 12.7523 27.5387 13.5051 26.68C14.288 25.8213 14.6795 24.6713 14.6795 23.23V0.689999H20.9126V23.23C20.9126 26.2353 19.934 28.7807 17.9767 30.866C16.0195 32.9513 13.5202 33.994 10.4789 33.994C7.31716 33.994 4.77272 33.028 2.84556 31.096C0.948521 29.1333 0 26.5573 0 23.368Z" fill="black"/>
	<path d="M22.3449 27.14C22.3449 25.208 22.9622 23.6593 24.1968 22.494C25.4314 21.3287 27.0273 20.5927 28.9846 20.286L34.4499 19.458C35.564 19.3047 36.1211 18.768 36.1211 17.848C36.1211 16.9893 35.7898 16.284 35.1274 15.732C34.495 15.18 33.5766 14.904 32.3722 14.904C31.1075 14.904 30.0987 15.2567 29.3459 15.962C28.6232 16.6673 28.2167 17.5413 28.1264 18.584L22.7966 17.434C23.0074 15.4713 23.9559 13.7387 25.6422 12.236C27.3284 10.7333 29.5567 9.982 32.327 9.982C35.6393 9.982 38.0783 10.7947 39.6441 12.42C41.21 14.0147 41.9929 16.0693 41.9929 18.584V29.716C41.9929 31.0653 42.0832 32.2613 42.2639 33.304H36.7534C36.6029 32.6293 36.5276 31.7247 36.5276 30.59C35.1123 32.8287 32.9292 33.948 29.9783 33.948C27.6898 33.948 25.8379 33.2733 24.4226 31.924C23.0375 30.5747 22.3449 28.98 22.3449 27.14ZM31.243 29.394C32.6582 29.394 33.8175 28.9953 34.7209 28.198C35.6543 27.37 36.1211 26.0207 36.1211 24.15V23.138L31.1075 23.92C29.2706 24.196 28.3522 25.1467 28.3522 26.772C28.3522 27.508 28.6082 28.1367 29.1201 28.658C29.632 29.1487 30.3396 29.394 31.243 29.394Z" fill="black"/>
	<path d="M65.5302 0V29.21C65.5302 30.7127 65.5904 32.0773 65.7108 33.304H59.9745C59.824 32.5373 59.7487 31.6633 59.7487 30.682C59.2368 31.6327 58.4238 32.3993 57.3096 32.982C56.2256 33.5647 54.9609 33.856 53.5156 33.856C50.3538 33.856 47.7492 32.7367 45.7016 30.498C43.6841 28.2287 42.6753 25.3767 42.6753 21.942C42.6753 18.5993 43.669 15.7933 45.6564 13.524C47.6739 11.2547 50.2334 10.12 53.3349 10.12C56.5267 10.12 58.6195 11.0553 59.6132 12.926V0H65.5302ZM48.7278 21.942C48.7278 23.9353 49.2397 25.5147 50.2635 26.68C51.2873 27.8147 52.6122 28.382 54.2382 28.382C55.8342 28.382 57.144 27.7993 58.1678 26.634C59.1916 25.4687 59.7035 23.8893 59.7035 21.896C59.7035 19.9333 59.1916 18.4 58.1678 17.296C57.144 16.1613 55.8342 15.594 54.2382 15.594C52.6423 15.594 51.3174 16.1613 50.2635 17.296C49.2397 18.4307 48.7278 19.9793 48.7278 21.942Z" fill="black"/>
	<path d="M74.3957 26.726C75.5098 27.8607 76.8498 28.428 78.4156 28.428C79.9815 28.428 81.3064 27.8607 82.3904 26.726C83.5045 25.5913 84.0616 24.012 84.0616 21.988C84.0616 19.964 83.5045 18.3847 82.3904 17.25C81.3064 16.1153 79.9815 15.548 78.4156 15.548C76.8498 15.548 75.5098 16.1153 74.3957 17.25C73.3117 18.3847 72.7697 19.964 72.7697 21.988C72.7697 24.012 73.3117 25.5913 74.3957 26.726ZM70.0596 13.386C72.2879 11.1167 75.0732 9.982 78.4156 9.982C81.758 9.982 84.5283 11.1167 86.7265 13.386C88.9548 15.6553 90.0689 18.5227 90.0689 21.988C90.0689 25.4533 88.9548 28.3207 86.7265 30.59C84.5283 32.8593 81.758 33.994 78.4156 33.994C75.0732 33.994 72.2879 32.8593 70.0596 30.59C67.8615 28.3207 66.7624 25.4533 66.7624 21.988C66.7624 18.5227 67.8615 15.6553 70.0596 13.386Z" fill="black"/>
	<path d="M97.1595 26.726C98.2736 27.8607 99.6136 28.428 101.179 28.428C102.745 28.428 104.07 27.8607 105.154 26.726C106.268 25.5913 106.825 24.012 106.825 21.988C106.825 19.964 106.268 18.3847 105.154 17.25C104.07 16.1153 102.745 15.548 101.179 15.548C99.6136 15.548 98.2736 16.1153 97.1595 17.25C96.0755 18.3847 95.5335 19.964 95.5335 21.988C95.5335 24.012 96.0755 25.5913 97.1595 26.726ZM92.8234 13.386C95.0517 11.1167 97.837 9.982 101.179 9.982C104.522 9.982 107.292 11.1167 109.49 13.386C111.719 15.6553 112.833 18.5227 112.833 21.988C112.833 25.4533 111.719 28.3207 109.49 30.59C107.292 32.8593 104.522 33.994 101.179 33.994C97.837 33.994 95.0517 32.8593 92.8234 30.59C90.6253 28.3207 89.5262 25.4533 89.5262 21.988C89.5262 18.5227 90.6253 15.6553 92.8234 13.386Z" fill="black"/>
</svg>
